<svg width="136" height="205" viewBox="0 0 136 205" fill="none" xmlns="http://www.w3.org/2000/svg">
<path d="M27.792 205H0.720001V72.52C0.720001 49.864 6.768 32.2 18.864 19.528C31.152 6.85599 47.376 0.519989 67.536 0.519989C89.04 0.519989 105.648 6.66399 117.36 18.952C129.264 31.24 135.216 46.888 135.216 65.896C135.216 77.8 133.008 88.168 128.592 97C124.368 105.832 118.608 112.648 111.312 117.448C104.016 122.248 96.24 125.8 87.984 128.104C79.728 130.408 71.088 131.56 62.064 131.56H40.464V106.216H65.232C78.096 106.216 88.176 102.376 95.472 94.696C102.96 86.824 106.704 77.032 106.704 65.32C106.704 53.8 103.248 44.392 96.336 37.096C89.616 29.608 79.92 25.864 67.248 25.864C54.96 25.864 45.264 30.088 38.16 38.536C31.248 46.792 27.792 57.736 27.792 71.368V205Z" fill="black"/>
</svg>
